<?xml version="1.0" standalone="no"?>
<!DOCTYPE svg PUBLIC "-//W3C//DTD SVG 20010904//EN"
 "http://www.w3.org/TR/2001/REC-SVG-20010904/DTD/svg10.dtd">
<svg version="1.0" xmlns="http://www.w3.org/2000/svg"
 width="500.000000pt" height="500.000000pt" viewBox="0 0 500.000000 500.000000"
 preserveAspectRatio="xMidYMid meet">

<g transform="translate(0.000000,500.000000) scale(0.100000,-0.100000)"
fill="#000000" stroke="none">
<path d="M0 2500 l0 -2500 2500 0 2500 0 0 2500 0 2500 -2500 0 -2500 0 0
-2500z m2705 1255 c156 -25 309 -85 445 -173 95 -62 304 -276 376 -383 112
-168 177 -354 190 -544 8 -103 2 -114 -50 -101 -21 5 -23 12 -29 98 -20 302
-181 609 -410 781 -159 120 -332 200 -512 238 -113 23 -301 25 -415 3 -212
-40 -444 -156 -602 -302 -186 -171 -319 -454 -335 -709 -6 -99 -15 -117 -55
-111 -22 3 -23 6 -21 103 3 181 68 370 190 553 69 105 267 303 369 372 130 87
278 147 431 174 104 19 316 19 428 1z m-1272 -1321 c38 -20 118 -76 166 -117
52 -45 117 -70 157 -62 20 3 78 39 141 87 125 93 155 108 220 108 63 -1 116
-26 216 -104 150 -117 172 -119 313 -29 192 121 219 133 291 133 60 0 98 -18
240 -111 171 -114 188 -114 333 -9 107 77 157 103 185 96 18 -5 25 -13 25 -30
0 -28 -11 -37 -73 -60 -26 -10 -75 -37 -110 -60 -96 -66 -120 -76 -187 -76
-74 0 -225 54 -277 100 -48 42 -106 70 -148 70 -40 0 -76 -16 -150 -66 -27
-19 -88 -49 -135 -69 -131 -53 -219 -45 -307 29 -46 38 -183 106 -216 106 -33
0 -165 -65 -250 -123 -52 -35 -70 -42 -123 -45 -69 -5 -95 6 -273 116 -62 38
-94 52 -122 52 -20 0 -44 3 -53 6 -19 7 -21 45 -4 62 17 17 104 15 141 -4z
m10 -330 c18 -9 55 -33 82 -54 70 -53 170 -102 209 -102 37 0 160 60 225 109
111 85 216 83 330 -6 54 -43 176 -101 212 -101 34 0 186 60 230 92 15 10 55
31 90 48 99 47 170 39 275 -28 87 -55 216 -112 257 -114 41 -1 156 54 203 97
30 28 56 32 74 10 16 -19 9 -45 -15 -59 -11 -6 -47 -30 -80 -52 -102 -71 -120
-77 -199 -72 -79 5 -124 25 -223 95 -75 52 -129 73 -192 73 -62 -1 -105 -18
-201 -79 -114 -73 -156 -91 -220 -91 -65 0 -117 22 -183 77 -94 78 -187 108
-262 83 -21 -7 -84 -44 -142 -83 -98 -67 -109 -71 -168 -75 -59 -4 -69 -1
-139 36 -41 22 -98 59 -126 81 -28 22 -67 43 -86 47 -43 8 -73 46 -54 69 16
20 63 19 103 -1z m775 -313 c21 -11 58 -36 83 -57 56 -47 154 -94 197 -94 51
0 136 34 232 94 178 110 227 110 412 -6 62 -39 131 -76 153 -83 34 -10 40 -16
43 -44 2 -20 -2 -33 -11 -37 -21 -8 -109 30 -211 91 -125 75 -176 91 -230 75
-42 -13 -145 -64 -251 -125 -105 -60 -177 -58 -277 8 -78 53 -218 127 -238
127 -25 0 -159 -68 -244 -123 -76 -49 -83 -52 -145 -52 l-66 0 0 35 0 35 62 6
c72 7 132 35 220 103 99 77 184 92 271 47z m-28 -312 c28 -6 74 -27 103 -47
187 -128 179 -124 221 -119 23 3 81 31 146 71 60 37 127 73 149 81 107 37 263
26 281 -21 7 -18 5 -29 -7 -44 -22 -25 -38 -25 -75 1 -41 30 -106 36 -149 14
-19 -9 -72 -43 -119 -75 -224 -152 -267 -149 -500 29 -67 52 -123 72 -143 52
-6 -6 -18 -11 -26 -11 -9 0 -37 -11 -63 -24 -52 -25 -68 -20 -68 24 0 22 9 31
53 52 58 28 120 34 197 17z"/>
</g>
</svg>
